<svg width="20" height="19" viewBox="0 0 20 19" fill="none" xmlns="http://www.w3.org/2000/svg">
<path d="M11.0002 10C11.0002 9.44771 10.5525 9 10.0002 9C9.44796 9 9.00024 9.44771 9.00024 10V10.01C9.00024 10.5623 9.44796 11.01 10.0002 11.01C10.5525 11.01 11.0002 10.5623 11.0002 10.01V10Z" fill="#195F3A"/>
<path fill-rule="evenodd" clip-rule="evenodd" d="M15.0002 3V4H17.0002C17.7959 4 18.559 4.31607 19.1216 4.87868C19.6842 5.44129 20.0002 6.20435 20.0002 7V10.9798C20.0005 10.9927 20.0005 11.0057 20.0002 11.0186V16C20.0002 16.7957 19.6842 17.5587 19.1216 18.1213C18.559 18.6839 17.7959 19 17.0002 19H3.00024C2.20459 19 1.44153 18.6839 0.878924 18.1213C0.316315 17.5587 0.000244144 16.7957 0.000244144 16V11.0212C-8.07981e-05 11.0066 -8.1964e-05 10.9919 0.000244144 10.9771V7C0.000244144 6.20435 0.316314 5.44129 0.878924 4.87868C1.44153 4.31607 2.20459 4 3.00024 4H5.00024V3C5.00024 2.20435 5.31632 1.44129 5.87892 0.87868C6.44153 0.31607 7.20459 0 8.00024 0H12.0002C12.7959 0 13.559 0.31607 14.1216 0.87868C14.6842 1.44129 15.0002 2.20435 15.0002 3ZM7.29314 2.29289C7.48067 2.10536 7.73503 2 8.00024 2H12.0002C12.2655 2 12.5198 2.10536 12.7074 2.29289C12.8949 2.48043 13.0002 2.73478 13.0002 3V4H7.00024V3C7.00024 2.73478 7.1056 2.48043 7.29314 2.29289ZM2.00024 12.5559V16C2.00024 16.2652 2.1056 16.5196 2.29314 16.7071C2.48067 16.8946 2.73503 17 3.00024 17H17.0002C17.2655 17 17.5198 16.8946 17.7073 16.7071C17.8949 16.5196 18.0002 16.2652 18.0002 16V12.5559C15.4674 13.5995 12.7499 14.1394 10.0002 14.1394C7.2506 14.1394 4.53304 13.5995 2.00024 12.5559ZM18.0002 10.3731C15.496 11.5356 12.766 12.1394 10.0002 12.1394C7.23442 12.1394 4.50449 11.5356 2.00024 10.3731V7C2.00024 6.73478 2.1056 6.48043 2.29314 6.29289C2.48067 6.10536 2.73503 6 3.00024 6H17.0002C17.2655 6 17.5198 6.10536 17.7073 6.29289C17.8949 6.48043 18.0002 6.73478 18.0002 7V10.3731Z" fill="#195F3A"/>
</svg>
