<svg width="10" height="18" viewBox="0 0 10 18" fill="none" xmlns="http://www.w3.org/2000/svg">
<path d="M4.02422 18V15.85C3.14089 15.65 2.37855 15.2667 1.73722 14.7C1.09589 14.1333 0.624885 13.3333 0.324219 12.3L2.17422 11.55C2.42422 12.35 2.79522 12.9583 3.28722 13.375C3.77922 13.7917 4.42489 14 5.22422 14C5.90755 14 6.48689 13.846 6.96222 13.538C7.43755 13.23 7.67489 12.7507 7.67422 12.1C7.67422 11.5167 7.49089 11.0543 7.12422 10.713C6.75755 10.3717 5.90755 9.984 4.57422 9.55C3.14089 9.1 2.15755 8.56267 1.62422 7.938C1.09089 7.31333 0.824219 6.55067 0.824219 5.65C0.824219 4.56667 1.17422 3.725 1.87422 3.125C2.57422 2.525 3.29089 2.18333 4.02422 2.1V0H6.02422V2.1C6.85755 2.23333 7.54522 2.53767 8.08722 3.013C8.62922 3.48833 9.02489 4.06733 9.27422 4.75L7.42422 5.55C7.22422 5.01667 6.94089 4.61667 6.57422 4.35C6.20755 4.08333 5.70755 3.95 5.07422 3.95C4.34089 3.95 3.78255 4.11267 3.39922 4.438C3.01589 4.76333 2.82422 5.16733 2.82422 5.65C2.82422 6.2 3.07422 6.63333 3.57422 6.95C4.07422 7.26667 4.94089 7.6 6.17422 7.95C7.32422 8.28333 8.19522 8.81267 8.78722 9.538C9.37922 10.2633 9.67488 11.1007 9.67422 12.05C9.67422 13.2333 9.32422 14.1333 8.62422 14.75C7.92422 15.3667 7.05755 15.75 6.02422 15.9V18H4.02422Z" fill="#195F3A"/>
</svg>
