<svg width="216" height="126" viewBox="0 0 216 126" fill="none" xmlns="http://www.w3.org/2000/svg">
<path d="M199.461 45.1641L177.586 23.2891C177.296 22.999 176.951 22.7689 176.571 22.6121C176.192 22.4552 175.786 22.3747 175.375 22.375H137.875C136.217 22.375 134.628 23.0335 133.456 24.2056C132.283 25.3777 131.625 26.9674 131.625 28.625V97.375C131.625 99.0326 132.283 100.622 133.456 101.794C134.628 102.967 136.217 103.625 137.875 103.625H194.125C195.783 103.625 197.372 102.967 198.544 101.794C199.717 100.622 200.375 99.0326 200.375 97.375V47.375C200.375 46.9645 200.295 46.558 200.138 46.1786C199.981 45.7992 199.751 45.4545 199.461 45.1641ZM175.375 47.375V30.1875L192.563 47.375H175.375Z" fill="#F3F4F7"/>
<path d="M83.4609 45.1641L61.5859 23.2891C61.2955 22.999 60.9508 22.7689 60.5714 22.6121C60.1921 22.4552 59.7855 22.3747 59.375 22.375H21.875C20.2174 22.375 18.6277 23.0335 17.4556 24.2056C16.2835 25.3777 15.625 26.9674 15.625 28.625V97.375C15.625 99.0326 16.2835 100.622 17.4556 101.794C18.6277 102.967 20.2174 103.625 21.875 103.625H78.125C79.7826 103.625 81.3723 102.967 82.5444 101.794C83.7165 100.622 84.375 99.0326 84.375 97.375V47.375C84.3753 46.9645 84.2948 46.558 84.1379 46.1786C83.9811 45.7992 83.7511 45.4545 83.4609 45.1641ZM59.375 47.375V30.1875L76.5625 47.375H59.375Z" fill="#F3F4F7"/>
<path d="M154.161 40.5267L126.598 12.9642C126.232 12.5987 125.798 12.3088 125.32 12.1112C124.842 11.9136 124.33 11.8121 123.812 11.8125H76.5625C74.4739 11.8125 72.4709 12.6422 70.994 14.119C69.5172 15.5959 68.6875 17.5989 68.6875 19.6875V106.312C68.6875 108.401 69.5172 110.404 70.994 111.881C72.4709 113.358 74.4739 114.188 76.5625 114.188H147.438C149.526 114.188 151.529 113.358 153.006 111.881C154.483 110.404 155.312 108.401 155.312 106.312V43.3125C155.313 42.7953 155.211 42.283 155.014 41.805C154.816 41.327 154.526 40.8927 154.161 40.5267ZM123.812 43.3125V21.6563L145.469 43.3125H123.812Z" fill="#E3E5EB"/>
</svg>
