<svg
        xmlns="http://www.w3.org/2000/svg"
        width="126"
        height="126"
        viewBox="0 0 126 126"
        fill="none"
      >
        <path
          d="M31.5612 72.7437C31.5745 73.0104 31.5335 73.2771 31.4406 73.5274C31.3476 73.7778 31.2047 74.0066 31.0205 74.1999C30.8364 74.3933 30.6148 74.5472 30.3693 74.6522C30.1238 74.7573 29.8595 74.8113 29.5924 74.8109H7.87713C6.98841 74.8123 6.12538 74.5129 5.42836 73.9616C4.73135 73.4102 4.24136 72.6393 4.03807 71.7741C3.91148 71.182 3.91732 70.5691 4.05516 69.9795C4.193 69.3899 4.45943 68.838 4.83541 68.3633C8.30931 63.7563 12.9186 60.1289 18.2131 57.8354C15.8886 55.716 14.1058 53.0706 13.014 50.1205C11.9222 47.1705 11.5531 44.0018 11.9377 40.8798C12.3224 37.7578 13.4495 34.7734 15.2247 32.1766C16.9999 29.5798 19.3715 27.4461 22.1409 25.9543C24.9102 24.4626 27.9967 23.6561 31.1419 23.6025C34.287 23.5488 37.3992 24.2496 40.2178 25.6461C43.0365 27.0426 45.4794 29.0942 47.3421 31.629C49.2048 34.1638 50.433 37.108 50.9238 40.2151C50.9872 40.6329 50.9124 41.06 50.7107 41.4314C50.509 41.8027 50.1915 42.0981 49.8066 42.2724C44.3452 44.7972 39.72 48.8315 36.4767 53.8992C33.2334 58.967 31.5073 64.8567 31.5021 70.8734C31.5021 71.5034 31.5021 72.1236 31.5612 72.7437ZM121.139 68.3583C117.673 63.7567 113.075 60.1313 107.791 57.8354C110.116 55.716 111.898 53.0706 112.99 50.1205C114.082 47.1705 114.451 44.0018 114.067 40.8798C113.682 37.7578 112.555 34.7734 110.78 32.1766C109.004 29.5798 106.633 27.4461 103.863 25.9543C101.094 24.4626 98.0075 23.6561 94.8624 23.6025C91.7172 23.5488 88.605 24.2496 85.7864 25.6461C82.9678 27.0426 80.5248 29.0942 78.6621 31.629C76.7994 34.1638 75.5712 37.108 75.0804 40.2151C75.017 40.6329 75.0919 41.06 75.2935 41.4314C75.4952 41.8027 75.8127 42.0981 76.1977 42.2724C81.659 44.7972 86.2842 48.8315 89.5276 53.8992C92.7709 58.967 94.4969 64.8567 94.5021 70.8734C94.5021 71.5034 94.5021 72.1236 94.4431 72.7437C94.4297 73.0104 94.4708 73.2771 94.5637 73.5274C94.6566 73.7778 94.7995 74.0066 94.9837 74.1999C95.1679 74.3933 95.3894 74.5472 95.6349 74.6522C95.8805 74.7573 96.1448 74.8113 96.4118 74.8109H118.127C119.016 74.8123 119.879 74.5129 120.576 73.9616C121.273 73.4102 121.763 72.6393 121.966 71.7741C122.094 71.1809 122.088 70.5668 121.949 69.9761C121.81 69.3854 121.542 68.8329 121.164 68.3583H121.139ZM77.3346 89.611C81.2551 86.6085 84.1363 82.4529 85.573 77.7284C87.0098 73.0039 86.93 67.9479 85.3449 63.2711C83.7598 58.5942 80.7489 54.5316 76.7356 51.6543C72.7223 48.777 67.9083 47.2296 62.9701 47.2296C58.032 47.2296 53.2179 48.777 49.2046 51.6543C45.1913 54.5316 42.1805 58.5942 40.5954 63.2711C39.0102 67.9479 38.9304 73.0039 40.3672 77.7284C41.804 82.4529 44.6851 86.6085 48.6056 89.611C41.6488 92.6253 35.8396 97.7877 32.0288 104.342C31.6831 104.941 31.5012 105.62 31.5012 106.311C31.5013 107.002 31.6833 107.681 32.029 108.28C32.3747 108.879 32.8719 109.376 33.4706 109.721C34.0693 110.067 34.7484 110.249 35.4396 110.248H90.5646C91.2559 110.249 91.935 110.067 92.5337 109.721C93.1324 109.376 93.6296 108.879 93.9753 108.28C94.321 107.681 94.503 107.002 94.503 106.311C94.503 105.62 94.3211 104.941 93.9755 104.342C90.1565 97.7833 84.3365 92.6206 77.3691 89.611H77.3346Z"
          fill="#E3E5EB"
        />
      </svg>