<svg xmlns="http://www.w3.org/2000/svg" width="126" height="126" viewBox="0 0 126 126" fill="none">
  <path d="M41.3438 25.5938V45.2812H13.7812C13.2591 45.2812 12.7583 45.0738 12.3891 44.7046C12.0199 44.3354 11.8125 43.8346 11.8125 43.3125V31.5C11.8125 29.4114 12.6422 27.4084 14.119 25.9315C15.5959 24.4547 17.5989 23.625 19.6875 23.625H39.375C39.8971 23.625 40.3979 23.8324 40.7671 24.2016C41.1363 24.5708 41.3438 25.0716 41.3438 25.5938ZM49.2188 100.406C49.2188 100.928 49.4262 101.429 49.7954 101.798C50.1646 102.168 50.6654 102.375 51.1875 102.375H74.8125C75.3346 102.375 75.8354 102.168 76.2046 101.798C76.5738 101.429 76.7812 100.928 76.7812 100.406V80.7188H49.2188V100.406ZM11.8125 82.6875V94.5C11.8125 96.5886 12.6422 98.5916 14.119 100.068C15.5959 101.545 17.5989 102.375 19.6875 102.375H39.375C39.8971 102.375 40.3979 102.168 40.7671 101.798C41.1363 101.429 41.3438 100.928 41.3438 100.406V80.7188H13.7812C13.2591 80.7188 12.7583 80.9262 12.3891 81.2954C12.0199 81.6646 11.8125 82.1654 11.8125 82.6875ZM11.8125 55.125V70.875C11.8125 71.3971 12.0199 71.8979 12.3891 72.2671C12.7583 72.6363 13.2591 72.8438 13.7812 72.8438H41.3438V53.1562H13.7812C13.2591 53.1562 12.7583 53.3637 12.3891 53.7329C12.0199 54.1021 11.8125 54.6029 11.8125 55.125ZM74.8125 23.625H51.1875C50.6654 23.625 50.1646 23.8324 49.7954 24.2016C49.4262 24.5708 49.2188 25.0716 49.2188 25.5938V45.2812H76.7812V25.5938C76.7812 25.0716 76.5738 24.5708 76.2046 24.2016C75.8354 23.8324 75.3346 23.625 74.8125 23.625ZM112.219 53.1562H84.6562V72.8438H112.219C112.741 72.8438 113.242 72.6363 113.611 72.2671C113.98 71.8979 114.188 71.3971 114.188 70.875V55.125C114.188 54.6029 113.98 54.1021 113.611 53.7329C113.242 53.3637 112.741 53.1562 112.219 53.1562ZM49.2188 72.8438H76.7812V53.1562H49.2188V72.8438ZM106.312 23.625H86.625C86.1029 23.625 85.6021 23.8324 85.2329 24.2016C84.8637 24.5708 84.6562 25.0716 84.6562 25.5938V45.2812H112.219C112.741 45.2812 113.242 45.0738 113.611 44.7046C113.98 44.3354 114.188 43.8346 114.188 43.3125V31.5C114.188 29.4114 113.358 27.4084 111.881 25.9315C110.404 24.4547 108.401 23.625 106.312 23.625ZM112.219 80.7188H84.6562V100.406C84.6562 100.928 84.8637 101.429 85.2329 101.798C85.6021 102.168 86.1029 102.375 86.625 102.375H106.312C108.401 102.375 110.404 101.545 111.881 100.068C113.358 98.5916 114.188 96.5886 114.188 94.5V82.6875C114.188 82.1654 113.98 81.6646 113.611 81.2954C113.242 80.9262 112.741 80.7188 112.219 80.7188Z" fill="#E3E5EB"/>
</svg>