<svg width="16" height="18" viewBox="0 0 16 18" fill="none" xmlns="http://www.w3.org/2000/svg">
<path d="M8.50096 3.9C9.92096 3.9 10.631 4.44 10.891 5.3C11.021 5.73 11.451 6 11.901 6H11.961C12.661 6 13.181 5.29 12.931 4.64C12.491 3.49 11.521 2.56 10.001 2.19V1.5C10.001 0.67 9.33096 0 8.50096 0C7.67096 0 7.00096 0.67 7.00096 1.5V2.16C6.61096 2.24 6.25096 2.37 5.90096 2.52L7.41096 4.03C7.73096 3.95 8.10096 3.9 8.50096 3.9ZM0.77096 1.62C0.678256 1.71251 0.604709 1.8224 0.554527 1.94338C0.504346 2.06435 0.478516 2.19403 0.478516 2.325C0.478516 2.45597 0.504346 2.58565 0.554527 2.70662C0.604709 2.8276 0.678256 2.93749 0.77096 3.03L3.50096 5.77C3.50096 7.85 5.06096 8.99 7.41096 9.68L10.921 13.19C10.581 13.68 9.87096 14.1 8.50096 14.1C6.85096 14.1 6.00096 13.51 5.67096 12.67C5.52096 12.28 5.18096 12 4.77096 12H4.60096C3.88096 12 3.36096 12.74 3.65096 13.39C4.24096 14.72 5.54096 15.51 7.01096 15.83V16.5C7.01096 17.33 7.68096 18 8.51096 18C9.34096 18 10.011 17.33 10.011 16.5V15.85C10.971 15.67 11.841 15.3 12.471 14.73L13.981 16.24C14.0735 16.3326 14.1835 16.406 14.3044 16.4561C14.4254 16.5062 14.555 16.532 14.686 16.532C14.8169 16.532 14.9465 16.5062 15.0675 16.4561C15.1885 16.406 15.2984 16.3326 15.391 16.24C15.4835 16.1474 15.557 16.0375 15.6071 15.9165C15.6572 15.7956 15.683 15.6659 15.683 15.535C15.683 15.4041 15.6572 15.2744 15.6071 15.1535C15.557 15.0325 15.4835 14.9226 15.391 14.83L2.18096 1.62C2.08845 1.5273 1.97856 1.45375 1.85758 1.40357C1.73661 1.35339 1.60693 1.32756 1.47596 1.32756C1.34499 1.32756 1.21531 1.35339 1.09434 1.40357C0.973362 1.45375 0.863474 1.5273 0.77096 1.62Z" fill="#195F3A"/>
</svg>
