<svg width="165" height="32" viewBox="0 0 165 32" fill="none" xmlns="http://www.w3.org/2000/svg">
<path d="M14.4189 16.0993L15.7648 17.4274C15.6756 17.5048 15.5836 17.5699 15.489 17.6227C15.265 17.7454 15.0117 17.8067 14.729 17.8067C14.5317 17.8067 14.3611 17.772 14.2171 17.7027C14.0731 17.628 13.9638 17.5294 13.8891 17.4067C13.8144 17.2787 13.7771 17.1401 13.7771 16.9908C13.7771 16.7668 13.8518 16.5695 14.0011 16.3988C14.1046 16.2811 14.2438 16.1812 14.4189 16.0993Z" fill="#195F3A"/>
<path d="M8.87935 14.4469L9.60165 16.5428H8.15705L8.87935 14.4469Z" fill="#195F3A"/>
<path fill-rule="evenodd" clip-rule="evenodd" d="M15.9988 0C7.16292 0 0 7.16292 0 15.9988C0 24.8347 7.16292 31.9977 15.9988 31.9977C24.8347 31.9977 31.9977 24.8347 31.9977 15.9988C31.9977 7.16292 24.8347 0 15.9988 0ZM17.0489 18.6946L16.4947 18.1478C16.3136 18.3001 16.1223 18.4237 15.921 18.5186C15.553 18.6946 15.1344 18.7826 14.6651 18.7826C14.2491 18.7826 13.8864 18.7133 13.5771 18.5746C13.2678 18.4307 13.0305 18.2307 12.8652 17.9747C12.6999 17.7134 12.6172 17.4121 12.6172 17.0708C12.6172 16.7988 12.6705 16.5481 12.7772 16.3188C12.8892 16.0842 13.0572 15.8788 13.2812 15.7029C13.4191 15.5938 13.5763 15.4983 13.7528 15.4162C13.6384 15.279 13.5506 15.1505 13.4891 15.0309C13.3931 14.8282 13.3451 14.6176 13.3451 14.3989C13.3451 14.1376 13.4118 13.903 13.5451 13.695C13.6785 13.4817 13.8704 13.3137 14.1211 13.191C14.3771 13.063 14.6864 12.999 15.049 12.999C15.4117 12.999 15.7156 13.0657 15.961 13.199C16.2063 13.3324 16.3903 13.5057 16.5129 13.719C16.6409 13.9323 16.7022 14.1696 16.6969 14.4309H15.553C15.5583 14.255 15.5103 14.1243 15.409 14.039C15.3077 13.9536 15.1823 13.911 15.033 13.911C14.8677 13.911 14.7344 13.9563 14.6331 14.047C14.5317 14.1323 14.4811 14.247 14.4811 14.3909C14.4811 14.5083 14.5184 14.6336 14.5931 14.7669C14.6731 14.8949 14.7904 15.0416 14.945 15.2069L16.3831 16.6319L16.3929 16.6148C16.4836 16.4601 16.5716 16.2868 16.6569 16.0948L16.8089 15.7828H18.0168L17.7688 16.3108C17.6408 16.5881 17.5075 16.8441 17.3689 17.0788C17.3003 17.1921 17.2305 17.2995 17.1594 17.4011L18.4648 18.6946H17.0489ZM6.15955 18.6946L8.1994 13.095H9.5753L11.6152 18.6946H10.3432L9.92144 17.4707H7.83726L7.41546 18.6946H6.15955ZM19.7167 13.095V18.6946H20.9167V15.1189L22.3006 17.9107H23.2605L24.6364 15.1189V18.6946H25.8363V13.095H24.4044L22.7885 16.4628L21.1566 13.095H19.7167Z" fill="#195F3A"/>
<path d="M40 23.1685V8H44.9732C46.7318 8 48.1805 8.31059 49.3193 8.93178C50.4725 9.55297 51.3229 10.4342 51.8707 11.5754C52.4329 12.7022 52.714 14.0457 52.714 15.6059C52.714 17.1372 52.4329 18.4735 51.8707 19.6148C51.3229 20.7416 50.4725 21.6156 49.3193 22.2368C48.1805 22.8579 46.7318 23.1685 44.9732 23.1685H40ZM42.5947 20.9583H44.8434C46.1552 20.9583 47.1858 20.7488 47.9354 20.3299C48.6994 19.8965 49.24 19.2825 49.5571 18.488C49.8886 17.679 50.0544 16.7183 50.0544 15.6059C50.0544 14.4791 49.8886 13.5185 49.5571 12.7239C49.24 11.9149 48.6994 11.2937 47.9354 10.8604C47.1858 10.4125 46.1552 10.1886 44.8434 10.1886H42.5947V20.9583Z" fill="#191616"/>
<path d="M59.0083 23.4286C58.1146 23.4286 57.3722 23.2841 56.7812 22.9952C56.1902 22.6918 55.7505 22.2873 55.4622 21.7817C55.1739 21.2761 55.0298 20.7271 55.0298 20.1348C55.0298 19.4414 55.2028 18.8491 55.5487 18.3579C55.9091 17.8523 56.4352 17.4623 57.1271 17.1878C57.8191 16.8989 58.6695 16.7544 59.6786 16.7544H62.4246C62.4246 16.1766 62.3454 15.6998 62.1868 15.3242C62.0282 14.9486 61.776 14.6669 61.43 14.4791C61.0985 14.2913 60.6804 14.1974 60.1759 14.1974C59.5705 14.1974 59.0515 14.3347 58.6191 14.6091C58.2011 14.8836 57.9488 15.2881 57.8623 15.8226H55.3109C55.3829 15.0425 55.6424 14.378 56.0893 13.8291C56.5361 13.2657 57.1127 12.8323 57.8191 12.5289C58.5398 12.2111 59.3254 12.0522 60.1759 12.0522C61.1994 12.0522 62.0715 12.2327 62.7922 12.5939C63.513 12.9406 64.0607 13.4462 64.4355 14.1108C64.8247 14.7608 65.0193 15.5482 65.0193 16.4727V23.1685H62.8138L62.5544 21.435C62.4102 21.7095 62.2228 21.9695 61.9922 22.2151C61.776 22.4607 61.5237 22.6774 61.2354 22.8652C60.9471 23.0385 60.6156 23.1758 60.2408 23.2769C59.8804 23.378 59.4696 23.4286 59.0083 23.4286ZM59.5921 21.37C60.0101 21.37 60.3849 21.2978 60.7165 21.1533C61.048 20.9944 61.3291 20.7777 61.5597 20.5032C61.7904 20.2287 61.9706 19.9181 62.1003 19.5714C62.23 19.2103 62.3165 18.8419 62.3598 18.4663V18.423H59.9597C59.4407 18.423 59.0155 18.488 58.684 18.618C58.3668 18.748 58.129 18.9286 57.9704 19.1597C57.8263 19.3764 57.7542 19.6364 57.7542 19.9398C57.7542 20.2432 57.8263 20.5032 57.9704 20.7199C58.129 20.9366 58.3452 21.1027 58.6191 21.2183C58.893 21.3194 59.2173 21.37 59.5921 21.37Z" fill="#191616"/>
<path d="M72.4889 23.1685C71.7681 23.1685 71.1338 23.053 70.5861 22.8218C70.0383 22.5907 69.6131 22.2079 69.3104 21.6734C69.0221 21.1388 68.8779 20.4165 68.8779 19.5064V14.5008H67.0184V12.3122H68.8779L69.1806 9.47352H71.4726V12.3122H74.4349V14.5008H71.4726V19.5064C71.4726 20.0554 71.5879 20.4382 71.8186 20.6549C72.0492 20.8571 72.4528 20.9583 73.0294 20.9583H74.3484V23.1685H72.4889Z" fill="#191616"/>
<path d="M80.6831 23.4286C79.7893 23.4286 79.047 23.2841 78.456 22.9952C77.865 22.6918 77.4253 22.2873 77.137 21.7817C76.8487 21.2761 76.7045 20.7271 76.7045 20.1348C76.7045 19.4414 76.8775 18.8491 77.2235 18.3579C77.5839 17.8523 78.11 17.4623 78.8019 17.1878C79.4938 16.8989 80.3443 16.7544 81.3534 16.7544H84.0994C84.0994 16.1766 84.0201 15.6998 83.8616 15.3242C83.703 14.9486 83.4507 14.6669 83.1048 14.4791C82.7732 14.2913 82.3552 14.1974 81.8507 14.1974C81.2453 14.1974 80.7263 14.3347 80.2939 14.6091C79.8758 14.8836 79.6236 15.2881 79.5371 15.8226H76.9856C77.0577 15.0425 77.3172 14.378 77.764 13.8291C78.2109 13.2657 78.7875 12.8323 79.4938 12.5289C80.2146 12.2111 81.0002 12.0522 81.8507 12.0522C82.8741 12.0522 83.7462 12.2327 84.467 12.5939C85.1877 12.9406 85.7355 13.4462 86.1103 14.1108C86.4995 14.7608 86.6941 15.5482 86.6941 16.4727V23.1685H84.4886L84.2291 21.435C84.085 21.7095 83.8976 21.9695 83.667 22.2151C83.4507 22.4607 83.1985 22.6774 82.9102 22.8652C82.6219 23.0385 82.2903 23.1758 81.9156 23.2769C81.5552 23.378 81.1444 23.4286 80.6831 23.4286ZM81.2669 21.37C81.6849 21.37 82.0597 21.2978 82.3912 21.1533C82.7228 20.9944 83.0039 20.7777 83.2345 20.5032C83.4652 20.2287 83.6453 19.9181 83.7751 19.5714C83.9048 19.2103 83.9913 18.8419 84.0345 18.4663V18.423H81.6345C81.1155 18.423 80.6903 18.488 80.3587 18.618C80.0416 18.748 79.8038 18.9286 79.6452 19.1597C79.501 19.3764 79.429 19.6364 79.429 19.9398C79.429 20.2432 79.501 20.5032 79.6452 20.7199C79.8038 20.9366 80.02 21.1027 80.2939 21.2183C80.5678 21.3194 80.8921 21.37 81.2669 21.37Z" fill="#191616"/>
<path d="M95.2005 23.1685V8H100.174C101.932 8 103.381 8.31059 104.52 8.93178C105.673 9.55297 106.523 10.4342 107.071 11.5754C107.633 12.7022 107.914 14.0457 107.914 15.6059C107.914 17.1372 107.633 18.4735 107.071 19.6148C106.523 20.7416 105.673 21.6156 104.52 22.2368C103.381 22.8579 101.932 23.1685 100.174 23.1685H95.2005ZM97.7952 20.9583H100.044C101.356 20.9583 102.386 20.7488 103.136 20.3299C103.9 19.8965 104.44 19.2825 104.758 18.488C105.089 17.679 105.255 16.7183 105.255 15.6059C105.255 14.4791 105.089 13.5185 104.758 12.7239C104.44 11.9149 103.9 11.2937 103.136 10.8604C102.386 10.4125 101.356 10.1886 100.044 10.1886H97.7952V20.9583Z" fill="#191616"/>
<path d="M114.576 23.4286C113.711 23.4286 112.962 23.248 112.328 22.8868C111.708 22.5257 111.232 21.9912 110.901 21.2833C110.569 20.561 110.403 19.6653 110.403 18.5963V12.3122H112.998V18.3363C112.998 19.2897 113.193 20.012 113.582 20.5032C113.985 20.9944 114.584 21.24 115.376 21.24C115.91 21.24 116.378 21.1172 116.782 20.8716C117.2 20.6116 117.524 20.2432 117.755 19.7665C118 19.2897 118.122 18.7119 118.122 18.0329V12.3122H120.717V23.1685H118.425L118.231 21.3483C117.899 21.9839 117.416 22.4896 116.782 22.8652C116.162 23.2408 115.427 23.4286 114.576 23.4286Z" fill="#191616"/>
<path d="M123.821 23.1685V12.3122H126.113L126.286 14.1541C126.632 13.5185 127.115 13.0128 127.734 12.6372C128.369 12.2472 129.104 12.0522 129.94 12.0522C130.819 12.0522 131.569 12.24 132.189 12.6156C132.809 12.9767 133.284 13.5185 133.616 14.2408C133.962 14.9486 134.135 15.8371 134.135 16.9061V23.1685H131.54V17.1445C131.54 16.2199 131.338 15.512 130.935 15.0209C130.545 14.5152 129.947 14.2624 129.14 14.2624C128.621 14.2624 128.152 14.3925 127.734 14.6525C127.316 14.8981 126.992 15.2592 126.761 15.736C126.531 16.1982 126.415 16.7689 126.415 17.4478V23.1685H123.821Z" fill="#191616"/>
<path d="M142.168 23.4286C141.102 23.4286 140.15 23.1974 139.314 22.7352C138.492 22.2584 137.844 21.6011 137.368 20.7632C136.907 19.9109 136.676 18.9286 136.676 17.8162C136.676 16.675 136.907 15.6782 137.368 14.8258C137.829 13.9591 138.471 13.2801 139.292 12.7889C140.129 12.2978 141.094 12.0522 142.19 12.0522C143.257 12.0522 144.186 12.2905 144.979 12.7673C145.772 13.244 146.385 13.8796 146.817 14.6742C147.264 15.4687 147.487 16.3571 147.487 17.3395C147.487 17.4839 147.48 17.6429 147.466 17.8162C147.466 17.9896 147.459 18.1774 147.444 18.3796H138.557V16.6894H144.871C144.828 15.9238 144.554 15.317 144.049 14.8692C143.559 14.4069 142.939 14.1758 142.19 14.1758C141.657 14.1758 141.159 14.2986 140.698 14.5441C140.251 14.7897 139.891 15.1509 139.617 15.6276C139.357 16.1043 139.228 16.7039 139.228 17.4262V18.0546C139.228 18.7335 139.357 19.3186 139.617 19.8098C139.876 20.2865 140.222 20.6549 140.655 20.9149C141.102 21.1605 141.599 21.2833 142.147 21.2833C142.752 21.2833 143.249 21.1533 143.639 20.8933C144.042 20.6332 144.345 20.2865 144.547 19.8531H147.163C146.976 20.5177 146.644 21.1244 146.168 21.6734C145.707 22.2079 145.138 22.634 144.46 22.9518C143.797 23.2697 143.033 23.4286 142.168 23.4286Z" fill="#191616"/>
<path d="M154.424 23.4286C153.472 23.4286 152.636 23.2769 151.916 22.9735C151.209 22.6557 150.647 22.2223 150.229 21.6734C149.811 21.11 149.566 20.4671 149.494 19.7448H152.089C152.161 20.0482 152.29 20.3299 152.478 20.5899C152.68 20.8355 152.939 21.0305 153.256 21.175C153.573 21.3194 153.955 21.3917 154.402 21.3917C154.82 21.3917 155.166 21.3339 155.44 21.2183C155.714 21.0883 155.916 20.9222 156.045 20.7199C156.175 20.5177 156.24 20.3082 156.24 20.0915C156.24 19.7448 156.146 19.4848 155.959 19.3114C155.786 19.1236 155.519 18.9791 155.159 18.878C154.799 18.7624 154.373 18.6541 153.883 18.553C153.393 18.4374 152.91 18.3074 152.435 18.1629C151.959 18.0185 151.526 17.8307 151.137 17.5995C150.748 17.3684 150.438 17.0795 150.207 16.7327C149.977 16.3716 149.861 15.931 149.861 15.4109C149.861 14.7753 150.027 14.2047 150.359 13.699C150.705 13.1934 151.195 12.7961 151.829 12.5072C152.478 12.2039 153.242 12.0522 154.121 12.0522C155.39 12.0522 156.399 12.3483 157.148 12.9406C157.912 13.5185 158.359 14.3347 158.489 15.3892H156.024C155.952 14.9848 155.75 14.6742 155.418 14.4575C155.087 14.2263 154.654 14.1108 154.121 14.1108C153.559 14.1108 153.126 14.2191 152.824 14.4358C152.535 14.638 152.391 14.9053 152.391 15.2376C152.391 15.4687 152.485 15.6709 152.672 15.8443C152.86 16.0177 153.126 16.1693 153.472 16.2994C153.818 16.4149 154.236 16.5233 154.726 16.6244C155.519 16.7978 156.218 16.9928 156.824 17.2095C157.444 17.4117 157.934 17.7223 158.294 18.1413C158.669 18.5457 158.856 19.138 158.856 19.9181C158.871 20.5971 158.691 21.2039 158.316 21.7384C157.955 22.2729 157.444 22.6918 156.781 22.9952C156.118 23.2841 155.332 23.4286 154.424 23.4286Z" fill="#191616"/>
</svg>
