<svg width="22" height="21" viewBox="0 0 22 21" fill="none" xmlns="http://www.w3.org/2000/svg">
<path d="M4.25 8C4.25 7.58579 4.58579 7.25 5 7.25H9C9.41421 7.25 9.75 7.58579 9.75 8C9.75 8.41421 9.41421 8.75 9 8.75H5C4.58579 8.75 4.25 8.41421 4.25 8Z" fill="#195F3A"/>
<path d="M16.9912 11C16.4389 11 15.9912 11.4477 15.9912 12C15.9912 12.5523 16.4389 13 16.9912 13H17.0012C17.5535 13 18.0012 12.5523 18.0012 12C18.0012 11.4477 17.5535 11 17.0012 11H16.9912Z" fill="#195F3A"/>
<path fill-rule="evenodd" clip-rule="evenodd" d="M4.58556 3.37491C4.57451 3.38224 4.56372 3.38981 4.55318 3.39761L4.51103 3.40319C3.3386 3.56088 2.38957 3.89314 1.64144 4.6419C0.893648 5.39033 0.561408 6.33898 0.403582 7.51131C0.249981 8.65225 0.249989 10.1105 0.25 11.9523V12.0564C0.249985 13.8941 0.249972 15.3497 0.403194 16.489C0.560881 17.6614 0.893137 18.6104 1.6419 19.3586C2.39033 20.1064 3.33898 20.4386 4.51131 20.5964C5.65224 20.75 7.11044 20.75 8.9523 20.75H12.0565C13.8941 20.75 15.3498 20.75 16.489 20.5968C17.6611 20.4392 18.61 20.107 19.358 19.3587C20.2834 18.4344 20.5783 17.1963 20.6848 15.5898C21.2622 15.3357 21.6986 14.7986 21.7462 14.1173L21.7465 14.1118C21.7501 14.0554 21.75 13.9933 21.75 13.9329V10.0671C21.75 10.0067 21.7501 9.94458 21.7465 9.88822L21.7461 9.88125C21.6972 9.2015 21.262 8.66424 20.6846 8.41007C20.5776 6.80414 20.2835 5.56571 19.358 4.64134C18.61 3.89297 17.6611 3.56084 16.489 3.40319L16.447 3.39764C16.4365 3.38983 16.4257 3.38225 16.4146 3.37491L12.6796 0.897879L12.6736 0.894C12.0266 0.473697 11.2716 0.25 10.5001 0.25C9.72853 0.25 8.97352 0.473668 8.3265 0.893972L4.58556 3.37491ZM9.14643 2.15009L7.48279 3.25339C7.9405 3.24999 8.42694 3.25 8.94357 3.25H12.0564C12.5731 3.25 13.0596 3.24999 13.5174 3.25339L11.8537 2.15009C11.4506 1.88896 10.9805 1.75 10.5001 1.75C10.0197 1.75 9.54959 1.88896 9.14643 2.15009ZM19.1678 8.25001C19.0539 6.9086 18.7968 6.20089 18.298 5.70266C17.8751 5.27942 17.2951 5.02512 16.289 4.88981C15.2614 4.75159 13.9067 4.75 12 4.75H9C7.09329 4.75 5.73861 4.75159 4.71097 4.88981C3.7049 5.02512 3.12544 5.27886 2.70256 5.7021C2.27935 6.12567 2.02559 6.70552 1.89017 7.71144C1.75184 8.73893 1.75 10.0934 1.75 12C1.75 13.9067 1.75159 15.2614 1.88981 16.289C2.02512 17.2951 2.27887 17.8746 2.7021 18.2974C3.12567 18.7206 3.70552 18.9744 4.71144 19.1098C5.73893 19.2482 7.09341 19.25 9 19.25H12C13.9067 19.25 15.2614 19.2484 16.289 19.1102C17.2951 18.9749 17.8746 18.7211 18.2974 18.2979C18.7964 17.7996 19.0546 17.0912 19.1681 15.75H17.23C15.0861 15.75 13.25 14.1226 13.25 12C13.25 9.87743 15.0851 8.25001 17.231 8.25001H19.1678ZM19.949 9.75072C19.9404 9.75029 19.9229 9.75001 19.833 9.75001H17.231C15.8069 9.75001 14.75 10.8086 14.75 12C14.75 13.1914 15.8079 14.25 17.23 14.25H19.833C19.9229 14.25 19.9404 14.2497 19.949 14.2493C20.1533 14.2361 20.2413 14.0996 20.2495 14.0166L20.2498 13.9999C20.25 13.9814 20.25 13.9571 20.25 13.917V10.083C20.25 10.0429 20.25 10.0186 20.2498 10.0002L20.2495 9.98411C20.2406 9.89887 20.1514 9.76382 19.949 9.75072Z" fill="#195F3A"/>
</svg>
